<?xml version="1.0" encoding="UTF-8"?>
<svg width="1240" height="1748" viewBox="0 0 1240 1748" fill="none" xmlns="http://www.w3.org/2000/svg">
  <defs>
    <filter id="softShadow" x="-20%" y="-20%" width="140%" height="140%">
      <feDropShadow dx="0" dy="28" stdDeviation="34" flood-color="#3d1d18" flood-opacity="0.16"/>
    </filter>
    <filter id="qrShadow" x="-20%" y="-20%" width="140%" height="140%">
      <feDropShadow dx="0" dy="16" stdDeviation="18" flood-color="#2d1814" flood-opacity="0.12"/>
    </filter>
    <linearGradient id="paper" x1="0" y1="0" x2="1" y2="1">
      <stop offset="0" stop-color="#fffaf5"/>
      <stop offset="1" stop-color="#f5ece4"/>
    </linearGradient>
    <linearGradient id="burgundy" x1="0" y1="0" x2="1" y2="1">
      <stop offset="0" stop-color="#9c241d"/>
      <stop offset="1" stop-color="#7d1f18"/>
    </linearGradient>
  </defs>

  <rect width="1240" height="1748" fill="#ede4dc"/>
  <rect x="86" y="76" width="1068" height="1596" rx="54" fill="url(#paper)" filter="url(#softShadow)"/>
  <rect x="126" y="116" width="988" height="1516" rx="36" stroke="#ead4cf" stroke-width="4"/>

  <image href="../public/puntoqr/hotel-vidal-logo.png" x="500" y="166" width="240" height="240" preserveAspectRatio="xMidYMid meet"/>
  <text x="620" y="462" text-anchor="middle" font-family="Arial, sans-serif" font-size="72" font-weight="800" fill="#1e1e1e">Hotel Vidal</text>
  <text x="620" y="524" text-anchor="middle" font-family="Arial, sans-serif" font-size="34" font-weight="750" letter-spacing="7" fill="#8d261e">PICHILEMU</text>

  <rect x="407" y="596" width="426" height="92" rx="46" fill="url(#burgundy)"/>
  <text x="620" y="656" text-anchor="middle" font-family="Arial, sans-serif" font-size="44" font-weight="850" fill="#fff">Escanéame</text>

  <text x="620" y="764" text-anchor="middle" font-family="Arial, sans-serif" font-size="39" font-weight="780" fill="#27211f">Contacto, reservas y datos de pago</text>
  <text x="620" y="814" text-anchor="middle" font-family="Arial, sans-serif" font-size="34" font-weight="650" fill="#625955">en tu teléfono</text>

  <g transform="translate(340 890)" filter="url(#qrShadow)">
    <rect x="-26" y="-26" width="612" height="612" rx="42" fill="#fff" stroke="#8f251e" stroke-width="8"/>
    <svg x="0" y="0" width="560" height="560" viewBox="0 0 560 560" xmlns="http://www.w3.org/2000/svg"><rect width="560" height="560" rx="28" fill="#fff"/><rect x="19.31" y="19.31" width="135.17" height="135.17" fill="#1b1b1b"/><rect x="38.62" y="38.62" width="96.55" height="96.55" fill="#fff"/><rect x="57.93" y="57.93" width="57.93" height="57.93" fill="#1b1b1b"/><rect x="405.52" y="19.31" width="135.17" height="135.17" fill="#1b1b1b"/><rect x="424.83" y="38.62" width="96.55" height="96.55" fill="#fff"/><rect x="444.14" y="57.93" width="57.93" height="57.93" fill="#1b1b1b"/><rect x="19.31" y="405.52" width="135.17" height="135.17" fill="#1b1b1b"/><rect x="38.62" y="424.83" width="96.55" height="96.55" fill="#fff"/><rect x="57.93" y="444.14" width="57.93" height="57.93" fill="#1b1b1b"/><rect x="193.10" y="19.31" width="19.31" height="19.31" fill="#1b1b1b"/><rect x="173.79" y="38.62" width="19.31" height="19.31" fill="#1b1b1b"/><rect x="212.41" y="38.62" width="19.31" height="19.31" fill="#1b1b1b"/><rect x="231.72" y="38.62" width="19.31" height="19.31" fill="#1b1b1b"/><rect x="308.97" y="38.62" width="19.31" height="19.31" fill="#1b1b1b"/><rect x="386.21" y="38.62" width="19.31" height="19.31" fill="#1b1b1b"/><rect x="154.48" y="57.93" width="19.31" height="19.31" fill="#1b1b1b"/><rect x="193.10" y="57.93" width="19.31" height="19.31" fill="#1b1b1b"/><rect x="270.34" y="57.93" width="19.31" height="19.31" fill="#1b1b1b"/><rect x="289.66" y="57.93" width="19.31" height="19.31" fill="#1b1b1b"/><rect x="366.90" y="57.93" width="19.31" height="19.31" fill="#1b1b1b"/><rect x="154.48" y="77.24" width="19.31" height="19.31" fill="#1b1b1b"/><rect x="212.41" y="77.24" width="19.31" height="19.31" fill="#1b1b1b"/><rect x="270.34" y="77.24" width="19.31" height="19.31" fill="#1b1b1b"/><rect x="328.28" y="77.24" width="19.31" height="19.31" fill="#1b1b1b"/><rect x="347.59" y="77.24" width="19.31" height="19.31" fill="#1b1b1b"/><rect x="386.21" y="77.24" width="19.31" height="19.31" fill="#1b1b1b"/><rect x="173.79" y="96.55" width="19.31" height="19.31" fill="#1b1b1b"/><rect x="193.10" y="96.55" width="19.31" height="19.31" fill="#1b1b1b"/><rect x="212.41" y="96.55" width="19.31" height="19.31" fill="#1b1b1b"/><rect x="328.28" y="96.55" width="19.31" height="19.31" fill="#1b1b1b"/><rect x="347.59" y="96.55" width="19.31" height="19.31" fill="#1b1b1b"/><rect x="366.90" y="96.55" width="19.31" height="19.31" fill="#1b1b1b"/><rect x="386.21" y="96.55" width="19.31" height="19.31" fill="#1b1b1b"/><rect x="154.48" y="115.86" width="19.31" height="19.31" fill="#1b1b1b"/><rect x="173.79" y="115.86" width="19.31" height="19.31" fill="#1b1b1b"/><rect x="308.97" y="115.86" width="19.31" height="19.31" fill="#1b1b1b"/><rect x="328.28" y="115.86" width="19.31" height="19.31" fill="#1b1b1b"/><rect x="347.59" y="115.86" width="19.31" height="19.31" fill="#1b1b1b"/><rect x="154.48" y="135.17" width="19.31" height="19.31" fill="#1b1b1b"/><rect x="173.79" y="135.17" width="19.31" height="19.31" fill="#1b1b1b"/><rect x="212.41" y="135.17" width="19.31" height="19.31" fill="#1b1b1b"/><rect x="231.72" y="135.17" width="19.31" height="19.31" fill="#1b1b1b"/><rect x="270.34" y="135.17" width="19.31" height="19.31" fill="#1b1b1b"/><rect x="289.66" y="135.17" width="19.31" height="19.31" fill="#1b1b1b"/><rect x="328.28" y="135.17" width="19.31" height="19.31" fill="#1b1b1b"/><rect x="347.59" y="135.17" width="19.31" height="19.31" fill="#1b1b1b"/><rect x="386.21" y="135.17" width="19.31" height="19.31" fill="#1b1b1b"/><rect x="19.31" y="154.48" width="19.31" height="19.31" fill="#1b1b1b"/><rect x="57.93" y="154.48" width="19.31" height="19.31" fill="#1b1b1b"/><rect x="154.48" y="154.48" width="19.31" height="19.31" fill="#1b1b1b"/><rect x="193.10" y="154.48" width="19.31" height="19.31" fill="#1b1b1b"/><rect x="231.72" y="154.48" width="19.31" height="19.31" fill="#1b1b1b"/><rect x="270.34" y="154.48" width="19.31" height="19.31" fill="#1b1b1b"/><rect x="328.28" y="154.48" width="19.31" height="19.31" fill="#1b1b1b"/><rect x="366.90" y="154.48" width="19.31" height="19.31" fill="#1b1b1b"/><rect x="405.52" y="154.48" width="19.31" height="19.31" fill="#1b1b1b"/><rect x="482.76" y="154.48" width="19.31" height="19.31" fill="#1b1b1b"/><rect x="502.07" y="154.48" width="19.31" height="19.31" fill="#1b1b1b"/><rect x="38.62" y="173.79" width="19.31" height="19.31" fill="#1b1b1b"/><rect x="115.86" y="173.79" width="19.31" height="19.31" fill="#1b1b1b"/><rect x="135.17" y="173.79" width="19.31" height="19.31" fill="#1b1b1b"/><rect x="212.41" y="173.79" width="19.31" height="19.31" fill="#1b1b1b"/><rect x="251.03" y="173.79" width="19.31" height="19.31" fill="#1b1b1b"/><rect x="289.66" y="173.79" width="19.31" height="19.31" fill="#1b1b1b"/><rect x="308.97" y="173.79" width="19.31" height="19.31" fill="#1b1b1b"/><rect x="386.21" y="173.79" width="19.31" height="19.31" fill="#1b1b1b"/><rect x="463.45" y="173.79" width="19.31" height="19.31" fill="#1b1b1b"/><rect x="482.76" y="173.79" width="19.31" height="19.31" fill="#1b1b1b"/><rect x="19.31" y="193.10" width="19.31" height="19.31" fill="#1b1b1b"/><rect x="38.62" y="193.10" width="19.31" height="19.31" fill="#1b1b1b"/><rect x="96.55" y="193.10" width="19.31" height="19.31" fill="#1b1b1b"/><rect x="154.48" y="193.10" width="19.31" height="19.31" fill="#1b1b1b"/><rect x="212.41" y="193.10" width="19.31" height="19.31" fill="#1b1b1b"/><rect x="231.72" y="193.10" width="19.31" height="19.31" fill="#1b1b1b"/><rect x="270.34" y="193.10" width="19.31" height="19.31" fill="#1b1b1b"/><rect x="328.28" y="193.10" width="19.31" height="19.31" fill="#1b1b1b"/><rect x="386.21" y="193.10" width="19.31" height="19.31" fill="#1b1b1b"/><rect x="444.14" y="193.10" width="19.31" height="19.31" fill="#1b1b1b"/><rect x="502.07" y="193.10" width="19.31" height="19.31" fill="#1b1b1b"/><rect x="19.31" y="212.41" width="19.31" height="19.31" fill="#1b1b1b"/><rect x="96.55" y="212.41" width="19.31" height="19.31" fill="#1b1b1b"/><rect x="115.86" y="212.41" width="19.31" height="19.31" fill="#1b1b1b"/><rect x="193.10" y="212.41" width="19.31" height="19.31" fill="#1b1b1b"/><rect x="212.41" y="212.41" width="19.31" height="19.31" fill="#1b1b1b"/><rect x="270.34" y="212.41" width="19.31" height="19.31" fill="#1b1b1b"/><rect x="289.66" y="212.41" width="19.31" height="19.31" fill="#1b1b1b"/><rect x="366.90" y="212.41" width="19.31" height="19.31" fill="#1b1b1b"/><rect x="424.83" y="212.41" width="19.31" height="19.31" fill="#1b1b1b"/><rect x="444.14" y="212.41" width="19.31" height="19.31" fill="#1b1b1b"/><rect x="463.45" y="212.41" width="19.31" height="19.31" fill="#1b1b1b"/><rect x="38.62" y="231.72" width="19.31" height="19.31" fill="#1b1b1b"/><rect x="135.17" y="231.72" width="19.31" height="19.31" fill="#1b1b1b"/><rect x="173.79" y="231.72" width="19.31" height="19.31" fill="#1b1b1b"/><rect x="193.10" y="231.72" width="19.31" height="19.31" fill="#1b1b1b"/><rect x="212.41" y="231.72" width="19.31" height="19.31" fill="#1b1b1b"/><rect x="308.97" y="231.72" width="19.31" height="19.31" fill="#1b1b1b"/><rect x="347.59" y="231.72" width="19.31" height="19.31" fill="#1b1b1b"/><rect x="386.21" y="231.72" width="19.31" height="19.31" fill="#1b1b1b"/><rect x="405.52" y="231.72" width="19.31" height="19.31" fill="#1b1b1b"/><rect x="482.76" y="231.72" width="19.31" height="19.31" fill="#1b1b1b"/><rect x="521.38" y="231.72" width="19.31" height="19.31" fill="#1b1b1b"/><rect x="57.93" y="251.03" width="19.31" height="19.31" fill="#1b1b1b"/><rect x="115.86" y="251.03" width="19.31" height="19.31" fill="#1b1b1b"/><rect x="173.79" y="251.03" width="19.31" height="19.31" fill="#1b1b1b"/><rect x="231.72" y="251.03" width="19.31" height="19.31" fill="#1b1b1b"/><rect x="289.66" y="251.03" width="19.31" height="19.31" fill="#1b1b1b"/><rect x="347.59" y="251.03" width="19.31" height="19.31" fill="#1b1b1b"/><rect x="386.21" y="251.03" width="19.31" height="19.31" fill="#1b1b1b"/><rect x="405.52" y="251.03" width="19.31" height="19.31" fill="#1b1b1b"/><rect x="463.45" y="251.03" width="19.31" height="19.31" fill="#1b1b1b"/><rect x="521.38" y="251.03" width="19.31" height="19.31" fill="#1b1b1b"/><rect x="19.31" y="270.34" width="19.31" height="19.31" fill="#1b1b1b"/><rect x="38.62" y="270.34" width="19.31" height="19.31" fill="#1b1b1b"/><rect x="154.48" y="270.34" width="19.31" height="19.31" fill="#1b1b1b"/><rect x="173.79" y="270.34" width="19.31" height="19.31" fill="#1b1b1b"/><rect x="193.10" y="270.34" width="19.31" height="19.31" fill="#1b1b1b"/><rect x="212.41" y="270.34" width="19.31" height="19.31" fill="#1b1b1b"/><rect x="347.59" y="270.34" width="19.31" height="19.31" fill="#1b1b1b"/><rect x="366.90" y="270.34" width="19.31" height="19.31" fill="#1b1b1b"/><rect x="386.21" y="270.34" width="19.31" height="19.31" fill="#1b1b1b"/><rect x="521.38" y="270.34" width="19.31" height="19.31" fill="#1b1b1b"/><rect x="38.62" y="289.66" width="19.31" height="19.31" fill="#1b1b1b"/><rect x="77.24" y="289.66" width="19.31" height="19.31" fill="#1b1b1b"/><rect x="115.86" y="289.66" width="19.31" height="19.31" fill="#1b1b1b"/><rect x="135.17" y="289.66" width="19.31" height="19.31" fill="#1b1b1b"/><rect x="212.41" y="289.66" width="19.31" height="19.31" fill="#1b1b1b"/><rect x="251.03" y="289.66" width="19.31" height="19.31" fill="#1b1b1b"/><rect x="289.66" y="289.66" width="19.31" height="19.31" fill="#1b1b1b"/><rect x="347.59" y="289.66" width="19.31" height="19.31" fill="#1b1b1b"/><rect x="386.21" y="289.66" width="19.31" height="19.31" fill="#1b1b1b"/><rect x="424.83" y="289.66" width="19.31" height="19.31" fill="#1b1b1b"/><rect x="463.45" y="289.66" width="19.31" height="19.31" fill="#1b1b1b"/><rect x="19.31" y="308.97" width="19.31" height="19.31" fill="#1b1b1b"/><rect x="77.24" y="308.97" width="19.31" height="19.31" fill="#1b1b1b"/><rect x="115.86" y="308.97" width="19.31" height="19.31" fill="#1b1b1b"/><rect x="135.17" y="308.97" width="19.31" height="19.31" fill="#1b1b1b"/><rect x="193.10" y="308.97" width="19.31" height="19.31" fill="#1b1b1b"/><rect x="251.03" y="308.97" width="19.31" height="19.31" fill="#1b1b1b"/><rect x="308.97" y="308.97" width="19.31" height="19.31" fill="#1b1b1b"/><rect x="328.28" y="308.97" width="19.31" height="19.31" fill="#1b1b1b"/><rect x="366.90" y="308.97" width="19.31" height="19.31" fill="#1b1b1b"/><rect x="424.83" y="308.97" width="19.31" height="19.31" fill="#1b1b1b"/><rect x="482.76" y="308.97" width="19.31" height="19.31" fill="#1b1b1b"/><rect x="38.62" y="328.28" width="19.31" height="19.31" fill="#1b1b1b"/><rect x="77.24" y="328.28" width="19.31" height="19.31" fill="#1b1b1b"/><rect x="96.55" y="328.28" width="19.31" height="19.31" fill="#1b1b1b"/><rect x="115.86" y="328.28" width="19.31" height="19.31" fill="#1b1b1b"/><rect x="212.41" y="328.28" width="19.31" height="19.31" fill="#1b1b1b"/><rect x="251.03" y="328.28" width="19.31" height="19.31" fill="#1b1b1b"/><rect x="289.66" y="328.28" width="19.31" height="19.31" fill="#1b1b1b"/><rect x="308.97" y="328.28" width="19.31" height="19.31" fill="#1b1b1b"/><rect x="386.21" y="328.28" width="19.31" height="19.31" fill="#1b1b1b"/><rect x="424.83" y="328.28" width="19.31" height="19.31" fill="#1b1b1b"/><rect x="463.45" y="328.28" width="19.31" height="19.31" fill="#1b1b1b"/><rect x="521.38" y="328.28" width="19.31" height="19.31" fill="#1b1b1b"/><rect x="57.93" y="347.59" width="19.31" height="19.31" fill="#1b1b1b"/><rect x="77.24" y="347.59" width="19.31" height="19.31" fill="#1b1b1b"/><rect x="96.55" y="347.59" width="19.31" height="19.31" fill="#1b1b1b"/><rect x="231.72" y="347.59" width="19.31" height="19.31" fill="#1b1b1b"/><rect x="251.03" y="347.59" width="19.31" height="19.31" fill="#1b1b1b"/><rect x="270.34" y="347.59" width="19.31" height="19.31" fill="#1b1b1b"/><rect x="289.66" y="347.59" width="19.31" height="19.31" fill="#1b1b1b"/><rect x="405.52" y="347.59" width="19.31" height="19.31" fill="#1b1b1b"/><rect x="424.83" y="347.59" width="19.31" height="19.31" fill="#1b1b1b"/><rect x="444.14" y="347.59" width="19.31" height="19.31" fill="#1b1b1b"/><rect x="502.07" y="347.59" width="19.31" height="19.31" fill="#1b1b1b"/><rect x="19.31" y="366.90" width="19.31" height="19.31" fill="#1b1b1b"/><rect x="38.62" y="366.90" width="19.31" height="19.31" fill="#1b1b1b"/><rect x="57.93" y="366.90" width="19.31" height="19.31" fill="#1b1b1b"/><rect x="77.24" y="366.90" width="19.31" height="19.31" fill="#1b1b1b"/><rect x="96.55" y="366.90" width="19.31" height="19.31" fill="#1b1b1b"/><rect x="115.86" y="366.90" width="19.31" height="19.31" fill="#1b1b1b"/><rect x="135.17" y="366.90" width="19.31" height="19.31" fill="#1b1b1b"/><rect x="154.48" y="366.90" width="19.31" height="19.31" fill="#1b1b1b"/><rect x="173.79" y="366.90" width="19.31" height="19.31" fill="#1b1b1b"/><rect x="193.10" y="366.90" width="19.31" height="19.31" fill="#1b1b1b"/><rect x="212.41" y="366.90" width="19.31" height="19.31" fill="#1b1b1b"/><rect x="231.72" y="366.90" width="19.31" height="19.31" fill="#1b1b1b"/><rect x="251.03" y="366.90" width="19.31" height="19.31" fill="#1b1b1b"/><rect x="270.34" y="366.90" width="19.31" height="19.31" fill="#1b1b1b"/><rect x="289.66" y="366.90" width="19.31" height="19.31" fill="#1b1b1b"/><rect x="308.97" y="366.90" width="19.31" height="19.31" fill="#1b1b1b"/><rect x="328.28" y="366.90" width="19.31" height="19.31" fill="#1b1b1b"/><rect x="347.59" y="366.90" width="19.31" height="19.31" fill="#1b1b1b"/><rect x="366.90" y="366.90" width="19.31" height="19.31" fill="#1b1b1b"/><rect x="386.21" y="366.90" width="19.31" height="19.31" fill="#1b1b1b"/><rect x="405.52" y="366.90" width="19.31" height="19.31" fill="#1b1b1b"/><rect x="424.83" y="366.90" width="19.31" height="19.31" fill="#1b1b1b"/><rect x="444.14" y="366.90" width="19.31" height="19.31" fill="#1b1b1b"/><rect x="463.45" y="366.90" width="19.31" height="19.31" fill="#1b1b1b"/><rect x="482.76" y="366.90" width="19.31" height="19.31" fill="#1b1b1b"/><rect x="502.07" y="366.90" width="19.31" height="19.31" fill="#1b1b1b"/><rect x="521.38" y="366.90" width="19.31" height="19.31" fill="#1b1b1b"/><rect x="38.62" y="386.21" width="19.31" height="19.31" fill="#1b1b1b"/><rect x="57.93" y="386.21" width="19.31" height="19.31" fill="#1b1b1b"/><rect x="135.17" y="386.21" width="19.31" height="19.31" fill="#1b1b1b"/><rect x="212.41" y="386.21" width="19.31" height="19.31" fill="#1b1b1b"/><rect x="231.72" y="386.21" width="19.31" height="19.31" fill="#1b1b1b"/><rect x="251.03" y="386.21" width="19.31" height="19.31" fill="#1b1b1b"/><rect x="308.97" y="386.21" width="19.31" height="19.31" fill="#1b1b1b"/><rect x="386.21" y="386.21" width="19.31" height="19.31" fill="#1b1b1b"/><rect x="405.52" y="386.21" width="19.31" height="19.31" fill="#1b1b1b"/><rect x="463.45" y="386.21" width="19.31" height="19.31" fill="#1b1b1b"/><rect x="482.76" y="386.21" width="19.31" height="19.31" fill="#1b1b1b"/><rect x="154.48" y="405.52" width="19.31" height="19.31" fill="#1b1b1b"/><rect x="193.10" y="405.52" width="19.31" height="19.31" fill="#1b1b1b"/><rect x="231.72" y="405.52" width="19.31" height="19.31" fill="#1b1b1b"/><rect x="289.66" y="405.52" width="19.31" height="19.31" fill="#1b1b1b"/><rect x="328.28" y="405.52" width="19.31" height="19.31" fill="#1b1b1b"/><rect x="366.90" y="405.52" width="19.31" height="19.31" fill="#1b1b1b"/><rect x="444.14" y="405.52" width="19.31" height="19.31" fill="#1b1b1b"/><rect x="463.45" y="405.52" width="19.31" height="19.31" fill="#1b1b1b"/><rect x="502.07" y="405.52" width="19.31" height="19.31" fill="#1b1b1b"/><rect x="154.48" y="424.83" width="19.31" height="19.31" fill="#1b1b1b"/><rect x="212.41" y="424.83" width="19.31" height="19.31" fill="#1b1b1b"/><rect x="270.34" y="424.83" width="19.31" height="19.31" fill="#1b1b1b"/><rect x="328.28" y="424.83" width="19.31" height="19.31" fill="#1b1b1b"/><rect x="386.21" y="424.83" width="19.31" height="19.31" fill="#1b1b1b"/><rect x="424.83" y="424.83" width="19.31" height="19.31" fill="#1b1b1b"/><rect x="444.14" y="424.83" width="19.31" height="19.31" fill="#1b1b1b"/><rect x="502.07" y="424.83" width="19.31" height="19.31" fill="#1b1b1b"/><rect x="154.48" y="444.14" width="19.31" height="19.31" fill="#1b1b1b"/><rect x="193.10" y="444.14" width="19.31" height="19.31" fill="#1b1b1b"/><rect x="289.66" y="444.14" width="19.31" height="19.31" fill="#1b1b1b"/><rect x="308.97" y="444.14" width="19.31" height="19.31" fill="#1b1b1b"/><rect x="328.28" y="444.14" width="19.31" height="19.31" fill="#1b1b1b"/><rect x="405.52" y="444.14" width="19.31" height="19.31" fill="#1b1b1b"/><rect x="463.45" y="444.14" width="19.31" height="19.31" fill="#1b1b1b"/><rect x="482.76" y="444.14" width="19.31" height="19.31" fill="#1b1b1b"/><rect x="502.07" y="444.14" width="19.31" height="19.31" fill="#1b1b1b"/><rect x="173.79" y="463.45" width="19.31" height="19.31" fill="#1b1b1b"/><rect x="193.10" y="463.45" width="19.31" height="19.31" fill="#1b1b1b"/><rect x="212.41" y="463.45" width="19.31" height="19.31" fill="#1b1b1b"/><rect x="231.72" y="463.45" width="19.31" height="19.31" fill="#1b1b1b"/><rect x="366.90" y="463.45" width="19.31" height="19.31" fill="#1b1b1b"/><rect x="386.21" y="463.45" width="19.31" height="19.31" fill="#1b1b1b"/><rect x="405.52" y="463.45" width="19.31" height="19.31" fill="#1b1b1b"/><rect x="154.48" y="482.76" width="19.31" height="19.31" fill="#1b1b1b"/><rect x="173.79" y="482.76" width="19.31" height="19.31" fill="#1b1b1b"/><rect x="212.41" y="482.76" width="19.31" height="19.31" fill="#1b1b1b"/><rect x="231.72" y="482.76" width="19.31" height="19.31" fill="#1b1b1b"/><rect x="270.34" y="482.76" width="19.31" height="19.31" fill="#1b1b1b"/><rect x="289.66" y="482.76" width="19.31" height="19.31" fill="#1b1b1b"/><rect x="328.28" y="482.76" width="19.31" height="19.31" fill="#1b1b1b"/><rect x="347.59" y="482.76" width="19.31" height="19.31" fill="#1b1b1b"/><rect x="366.90" y="482.76" width="19.31" height="19.31" fill="#1b1b1b"/><rect x="386.21" y="482.76" width="19.31" height="19.31" fill="#1b1b1b"/><rect x="405.52" y="482.76" width="19.31" height="19.31" fill="#1b1b1b"/><rect x="444.14" y="482.76" width="19.31" height="19.31" fill="#1b1b1b"/><rect x="463.45" y="482.76" width="19.31" height="19.31" fill="#1b1b1b"/><rect x="502.07" y="482.76" width="19.31" height="19.31" fill="#1b1b1b"/><rect x="521.38" y="482.76" width="19.31" height="19.31" fill="#1b1b1b"/><rect x="173.79" y="502.07" width="19.31" height="19.31" fill="#1b1b1b"/><rect x="270.34" y="502.07" width="19.31" height="19.31" fill="#1b1b1b"/><rect x="308.97" y="502.07" width="19.31" height="19.31" fill="#1b1b1b"/><rect x="347.59" y="502.07" width="19.31" height="19.31" fill="#1b1b1b"/><rect x="444.14" y="502.07" width="19.31" height="19.31" fill="#1b1b1b"/><rect x="482.76" y="502.07" width="19.31" height="19.31" fill="#1b1b1b"/><rect x="521.38" y="502.07" width="19.31" height="19.31" fill="#1b1b1b"/><rect x="193.10" y="521.38" width="19.31" height="19.31" fill="#1b1b1b"/><rect x="212.41" y="521.38" width="19.31" height="19.31" fill="#1b1b1b"/><rect x="289.66" y="521.38" width="19.31" height="19.31" fill="#1b1b1b"/><rect x="328.28" y="521.38" width="19.31" height="19.31" fill="#1b1b1b"/><rect x="366.90" y="521.38" width="19.31" height="19.31" fill="#1b1b1b"/><rect x="386.21" y="521.38" width="19.31" height="19.31" fill="#1b1b1b"/><rect x="463.45" y="521.38" width="19.31" height="19.31" fill="#1b1b1b"/></svg>
  </g>

  <rect x="286" y="1510" width="668" height="74" rx="37" fill="#ffffff" stroke="#ead4cf" stroke-width="3"/>
  <text x="620" y="1559" text-anchor="middle" font-family="Arial, sans-serif" font-size="29" font-weight="800" fill="#1f252a">WhatsApp · Booking · Facebook · Ubicación</text>

  <text x="620" y="1640" text-anchor="middle" font-family="Arial, sans-serif" font-size="22" font-weight="750" fill="#8a7b74" opacity="0.64">Creado con PuntoQR</text>
</svg>